<svg xmlns="http://www.w3.org/2000/svg" width="47.523" height="47.532" viewBox="0 0 47.523 47.532"><g transform="translate(-0.449 0)"><path d="M47.851,13.975a17.368,17.368,0,0,0-1.1-5.766,12.176,12.176,0,0,0-6.955-6.955,17.413,17.413,0,0,0-5.766-1.1C31.48.028,30.673,0,24.219,0s-7.261.028-9.8.139a17.373,17.373,0,0,0-5.766,1.1A11.6,11.6,0,0,0,4.441,3.993,11.7,11.7,0,0,0,1.7,8.2,17.415,17.415,0,0,0,.6,13.965C.476,16.51.449,17.317.449,23.771s.028,7.261.139,9.8a17.367,17.367,0,0,0,1.105,5.766,12.174,12.174,0,0,0,6.955,6.955,17.415,17.415,0,0,0,5.766,1.1c2.535.112,3.343.139,9.8.139s7.261-.028,9.8-.139a17.364,17.364,0,0,0,5.766-1.1,12.158,12.158,0,0,0,6.955-6.955,17.427,17.427,0,0,0,1.1-5.766c.111-2.535.139-3.343.139-9.8s-.009-7.261-.121-9.8ZM43.57,33.381a13.028,13.028,0,0,1-.817,4.411A7.885,7.885,0,0,1,38.24,42.3a13.074,13.074,0,0,1-4.411.817c-2.507.112-3.259.139-9.6.139s-7.1-.028-9.6-.139a13.021,13.021,0,0,1-4.411-.817,7.314,7.314,0,0,1-2.73-1.774A7.39,7.39,0,0,1,5.713,37.8,13.076,13.076,0,0,1,4.9,33.39c-.112-2.507-.139-3.259-.139-9.6s.028-7.1.139-9.6a13.021,13.021,0,0,1,.817-4.411A7.225,7.225,0,0,1,7.5,7.048a7.379,7.379,0,0,1,2.73-1.773,13.083,13.083,0,0,1,4.411-.817c2.507-.111,3.259-.139,9.6-.139s7.1.028,9.6.139a13.028,13.028,0,0,1,4.411.817,7.309,7.309,0,0,1,2.73,1.773,7.388,7.388,0,0,1,1.774,2.73,13.081,13.081,0,0,1,.817,4.411c.111,2.507.139,3.259.139,9.6s-.028,7.085-.139,9.592Zm0,0" transform="translate(0 0)" fill="#bcc5d8"/><path d="M137.159,124.5a12.21,12.21,0,1,0,12.21,12.21A12.213,12.213,0,0,0,137.159,124.5Zm0,20.131a7.921,7.921,0,1,1,7.921-7.921A7.922,7.922,0,0,1,137.159,144.631Zm0,0" transform="translate(-112.94 -112.94)" fill="#bcc5d8"/><path d="M368.151,91.452A2.851,2.851,0,1,1,365.3,88.6,2.851,2.851,0,0,1,368.151,91.452Zm0,0" transform="translate(-328.388 -80.375)" fill="#bcc5d8"/></g></svg>