<svg xmlns="http://www.w3.org/2000/svg" width="47.797" height="47.797" viewBox="0 0 47.797 47.797"><path d="M14.938,39.489H8.4v-21.1h6.535Zm.652-27.82A3.827,3.827,0,1,0,11.764,15.5a3.828,3.828,0,0,0,3.825-3.828ZM39.4,27.882c0-5.664-1.2-9.864-7.813-9.864A6.781,6.781,0,0,0,25.4,21.261h-.006v-2.87H19.045v21.1h6.348V29.013c0-2.743.7-5.4,4.1-5.4,3.354,0,3.463,3.137,3.463,5.575v10.3H39.4ZM47.8,42.2V5.6A5.607,5.607,0,0,0,42.2,0H5.6A5.607,5.607,0,0,0,0,5.6V42.2a5.607,5.607,0,0,0,5.6,5.6H42.2A5.607,5.607,0,0,0,47.8,42.2ZM42.2,3.734A1.869,1.869,0,0,1,44.064,5.6V42.2A1.869,1.869,0,0,1,42.2,44.063H5.6A1.869,1.869,0,0,1,3.735,42.2V5.6A1.869,1.869,0,0,1,5.6,3.734Zm0,0" transform="translate(0)" fill="#bcc5d8"/></svg>