<svg xmlns="http://www.w3.org/2000/svg" width="47.797" height="47.797" viewBox="0 0 47.797 47.797"><path d="M23.9,0A23.9,23.9,0,1,0,47.8,23.992,24.061,24.061,0,0,0,23.9,0Zm4.2,44.577a21.215,21.215,0,0,1-8.4,0V38.023a3.981,3.981,0,0,1,.98-2.885,30.631,30.631,0,0,0,1.736-2.548l-2.156-.336c-5.545-.812-7.73-3.7-8.6-5.937a9.524,9.524,0,0,1,1.485-9.13,1.689,1.689,0,0,0,.336-1.625,8.25,8.25,0,0,1-.084-4.117,12.776,12.776,0,0,1,4.285,2.045,2.012,2.012,0,0,0,1.176.28,20.353,20.353,0,0,1,5.069-.728,17.16,17.16,0,0,1,4.677.672,2.021,2.021,0,0,0,1.512-.224A12.441,12.441,0,0,1,34.4,11.445a8.254,8.254,0,0,1-.084,4.117,1.687,1.687,0,0,0,.336,1.625,9.525,9.525,0,0,1,1.484,9.13c-.868,2.24-3.053,5.125-8.6,5.937l-2.156.336a29.95,29.95,0,0,0,1.737,2.548,3.983,3.983,0,0,1,.98,2.885Zm2.8-.812V38.023a6.716,6.716,0,0,0-.784-3.445c4.257-1.148,7.282-3.669,8.626-7.282a12.313,12.313,0,0,0-1.6-11.483c.42-1.876.42-4.873-.588-6.273a2.186,2.186,0,0,0-1.848-.952h-.028c-2.172.117-3.881,1.211-5.713,2.324a19.752,19.752,0,0,0-5.1-.672,19.346,19.346,0,0,0-5.013.672C16.929,9.75,15.236,8.7,13,8.589a2.148,2.148,0,0,0-1.765.952c-1.008,1.4-1.008,4.4-.588,6.273A12.325,12.325,0,0,0,9.055,27.3c1.344,3.613,4.369,6.134,8.626,7.282a6.089,6.089,0,0,0-.731,2.454,3.733,3.733,0,0,1-2.3.189,3.1,3.1,0,0,1-1.8-1.537c-1.112-1.869-3.007-3.394-5.164-3.2l.246,2.79c1-.092,1.993.965,2.509,1.836A5.765,5.765,0,0,0,16.9,39.988v3.776a21.1,21.1,0,1,1,14,0Zm0,0" fill="#bcc5d8"/></svg>