<svg xmlns="http://www.w3.org/2000/svg" width="58.075" height="47.532" viewBox="0 0 58.075 47.532"><path d="M58.075,6.348c-3.653.168-3.573.155-3.986.189L56.252.359S49.5,2.843,47.786,3.287A13.55,13.55,0,0,0,31.829,2a11.052,11.052,0,0,0-5.312,11.364A29.478,29.478,0,0,1,7.419,2.617L5.817.693l-1.2,2.2A13.286,13.286,0,0,0,3.2,11.835,12.85,12.85,0,0,0,4.45,15.327l-1.374-.533-.163,2.3A12.253,12.253,0,0,0,4.99,24.374a12.952,12.952,0,0,0,1.619,2l-.71-.109.867,2.631a12.792,12.792,0,0,0,6.576,7.619c-3.067,1.3-5.544,2.132-9.616,3.471L0,41.208l3.441,1.881a36.117,36.117,0,0,0,10.528,3.832c10.182,1.6,21.646.3,29.363-6.654,6.5-5.854,8.633-14.182,8.19-22.848a5.415,5.415,0,0,1,1.012-3.525c1.441-1.924,5.531-7.532,5.54-7.545Zm-8.261,5.507a8.818,8.818,0,0,0-1.686,5.737c.447,8.741-1.931,15.521-7.07,20.148-6,5.406-15.684,7.528-26.562,5.822a26.341,26.341,0,0,1-5.691-1.691,90.237,90.237,0,0,0,10.308-4.237l5.943-2.813-6.562-.42a9.28,9.28,0,0,1-7.369-4.2,11.769,11.769,0,0,0,2.5-.416l6.258-1.743L13.571,26.5A9.4,9.4,0,0,1,7.83,22.5,9.626,9.626,0,0,1,6.586,19.76a15.754,15.754,0,0,0,2.56.409l5.841.578-4.628-3.61A9.741,9.741,0,0,1,6.668,6.871c10.407,10.794,22.626,9.983,23.856,10.268a20.147,20.147,0,0,0-.349-2.886C28.6,8.685,32.052,5.858,33.609,4.9a10.163,10.163,0,0,1,11.99.993,3.045,3.045,0,0,0,2.794.747,23.517,23.517,0,0,0,2.3-.7l-1.467,4.191H51.1c-.354.474-.778,1.042-1.288,1.722Zm0,0" transform="translate(0 0)" fill="#bcc5d8"/></svg>